<svg xmlns="http://www.w3.org/2000/svg" viewBox="0 0 64 64"><rect width="64" height="64" rx="14" fill="#1F3B34"/><path d="M13 55 V26 A19 19 0 0 1 51 26 V55" fill="none" stroke="#CDB07E" stroke-width="2.2"/><path d="M39.83445068359375 24.83503662109375 37.396956787109374 30.677493896484375 36.26447509765625 36.48245727539062H35.87454833984375L35.55720092773437 31.30491455078125L26.502359619140627 30.86L26.64486572265625 30.472481689453126L35.844670410156255 29.952579345703125L39.442017822265626 24.83503662109375ZM44.40452392578125 24.272237548828123H43.9495849609375L42.699804687500006 17.067371826171875L44.99931640625 17.4498291015625H30.15469482421875L30.492139892578123 16.4H42.917298583984376L45.67685913085938 15.347567138671874H45.8093408203125ZM24.696712646484375 43.860146484375 27.959267578125 44.620048828125 27.861773681640628 45.0H17.419951171875L17.532432861328125 44.620048828125L21.09493896484375 43.860146484375L29.112530517578126 17.539853515624998L25.832481689453125 16.779951171875L25.947469482421873 16.4H33.059267578125Z" fill="#E9D9B8"/></svg>