<svg xmlns="http://www.w3.org/2000/svg" viewBox="274 5 702 702" width="702" height="702" role="img" aria-label="Fürsten Reality"><title>Fürsten Reality</title><defs><clipPath id="sky6246"><path d="M0 0H1254V607H925L645 380 325 607H0Z"/></clipPath></defs><defs><clipPath id="g6246" clipPathUnits="userSpaceOnUse"><path clip-rule="evenodd" d="M0 0H1254V700H0Z M564 247.4 570 250.9V600H564Z M581 257.2 587 260.7V600H581Z M598 267.1 604 270.6V600H598Z M615 277.0 621 280.4V600H615Z M632 286.8 638 290.3V600H632Z"/></clipPath></defs><g clip-path="url(#sky6246)"><path d="M463 297 548 242V600H463Z" fill="#CDB07E"/><path d="M570 178 700 92V600H570Z" fill="#F3EEE2" clip-path="url(#g6246)"/><path d="M553 242.0 564 248.4V600H553Z" fill="#F3EEE2"/><path d="M570 251.9 581 258.2V600H570Z" fill="#F3EEE2"/><path d="M587 261.7 598 268.1V600H587Z" fill="#F3EEE2"/><path d="M604 271.6 615 278.0V600H604Z" fill="#F3EEE2"/><path d="M621 281.4 632 287.8V600H621Z" fill="#F3EEE2"/><path d="M712 165 770 210V600H712Z" fill="#F3EEE2"/><path d="M785 313 847 360V600H785Z" fill="#F3EEE2"/></g><path d="M300 607H322" stroke="#F3EEE2" stroke-width="7"/><path d="M318 612 645 398 930 610" fill="none" stroke="#F3EEE2" stroke-width="20" stroke-linejoin="miter"/><path d="M928 607H950" stroke="#CDB07E" stroke-width="7"/><path d="M362 614 640 460 772 548" fill="none" stroke="#CDB07E" stroke-width="12"/><rect x="606" y="548" width="30" height="30" fill="#F3EEE2"/><rect x="606" y="585" width="30" height="30" fill="#F3EEE2"/><rect x="643" y="548" width="30" height="30" fill="#F3EEE2"/><rect x="643" y="585" width="30" height="30" fill="#F3EEE2"/></svg>